<?xml version="1.0" standalone="no"?>
<!DOCTYPE svg PUBLIC "-//W3C//DTD SVG 20010904//EN"
 "http://www.w3.org/TR/2001/REC-SVG-20010904/DTD/svg10.dtd">
<svg version="1.0" xmlns="http://www.w3.org/2000/svg"
 width="700.000000pt" height="700.000000pt" viewBox="0 0 700.000000 700.000000"
 preserveAspectRatio="xMidYMid meet">
<metadata>
Created by potrace 1.11, written by Peter Selinger 2001-2013
</metadata>
<g transform="translate(0.000000,700.000000) scale(0.100000,-0.100000)"
fill="#000000" stroke="none">
<path d="M3435 6979 c-27 -11 -120 -45 -205 -75 -85 -31 -247 -89 -360 -129
-113 -40 -308 -110 -435 -155 -126 -45 -286 -102 -355 -127 -69 -25 -192 -69
-275 -98 -82 -29 -285 -101 -450 -160 -384 -138 -518 -186 -685 -245 -74 -26
-201 -71 -282 -100 l-147 -52 4 -37 c8 -62 14 -114 20 -176 4 -33 8 -71 10
-85 2 -14 7 -52 10 -85 4 -33 8 -71 10 -85 2 -14 7 -50 10 -80 6 -55 8 -67 20
-170 3 -30 8 -71 11 -90 2 -19 7 -66 10 -104 3 -38 8 -76 9 -85 6 -30 17 -126
30 -246 3 -33 8 -73 10 -90 10 -77 46 -388 50 -430 3 -31 15 -141 21 -185 2
-14 6 -45 9 -70 2 -25 7 -61 9 -80 3 -19 8 -62 11 -95 3 -33 8 -71 10 -85 2
-14 6 -52 10 -85 11 -106 16 -148 25 -225 5 -41 12 -97 15 -125 9 -85 15 -139
20 -170 3 -16 7 -57 10 -90 3 -33 10 -94 15 -135 5 -41 12 -100 15 -130 4 -30
8 -66 10 -80 2 -14 7 -52 10 -85 3 -33 8 -73 10 -90 2 -16 9 -75 15 -130 6
-55 13 -116 16 -135 3 -19 7 -62 9 -95 3 -33 7 -71 10 -85 2 -14 7 -50 11 -80
3 -30 7 -66 9 -80 2 -14 6 -54 10 -90 10 -98 13 -113 27 -125 7 -7 231 -133
498 -280 267 -147 505 -279 530 -293 25 -14 70 -39 100 -55 30 -17 174 -96
320 -177 146 -81 290 -160 320 -177 47 -26 222 -123 370 -206 25 -13 151 -83
280 -154 129 -72 257 -142 283 -157 l48 -27 167 92 c261 144 868 480 1232 682
129 72 260 144 291 161 821 450 1069 592 1073 616 3 14 8 52 11 85 3 33 8 71
10 85 2 14 7 54 10 90 3 36 8 76 10 90 2 14 7 50 10 80 3 30 8 71 10 90 6 47
24 204 30 260 3 25 12 101 20 170 8 69 17 148 20 175 5 52 22 194 30 255 2 19
16 136 30 260 14 124 34 299 45 390 10 91 22 194 26 230 3 36 8 72 9 80 1 8 6
44 10 80 3 36 8 76 10 90 2 14 6 54 10 90 3 36 8 72 10 80 2 8 7 49 10 90 4
41 8 77 10 80 1 3 6 41 10 84 4 43 8 86 10 95 1 9 6 43 9 76 4 33 11 98 17
145 5 47 12 108 15 135 2 28 7 61 9 75 2 14 7 52 10 85 3 33 8 76 10 95 6 45
43 370 50 435 3 28 8 61 10 75 2 14 7 50 10 81 6 55 5 57 -22 67 -15 5 -154
55 -308 110 -354 127 -958 342 -1050 375 -38 13 -198 71 -355 127 -157 56
-352 126 -435 155 -82 29 -339 120 -570 203 -463 165 -512 182 -523 181 -4 0
-29 -10 -57 -20z"/>
</g>
</svg>
