<?xml version="1.0" encoding="utf-8"?>
<!-- Generator: Adobe Illustrator 17.1.0, SVG Export Plug-In . SVG Version: 6.00 Build 0)  -->
<!DOCTYPE svg PUBLIC "-//W3C//DTD SVG 1.1//EN" "http://www.w3.org/Graphics/SVG/1.1/DTD/svg11.dtd">
<svg version="1.1" id="Layer_1" xmlns="http://www.w3.org/2000/svg" xmlns:xlink="http://www.w3.org/1999/xlink" x="0px" y="0px"
	 viewBox="61.2 163.4 489.6 489.6" enable-background="new 61.2 163.4 489.6 489.6" xml:space="preserve">
<polygon fill="#126FB5" points="306,163.4 306,163.4 306,163.4 78.1,244.7 112.9,546.1 306,653 306,653 306,653 499.1,546.1 
	533.9,244.7 "/>
<polygon fill="#0D5AA1" points="306,163.4 306,217.8 306,217.5 306,465.5 306,465.5 306,653 306,653 499.1,546.1 533.9,244.7 "/>
<g>
	<path fill="#FFFFFF" d="M229.9,352.6l49.3-98h47.1l-70.9,134.5l72.5,136.8h-47.5l-50.4-99.5l-50.6,99.5h-47.4l72.7-136.8
		l-71.1-134.5h47.1L229.9,352.6z"/>
</g>
<g>
	<path fill="#FFFFFF" d="M323.6,431c0-17.1,3.4-32.5,10.2-46.2s16.3-24.2,28.5-31.6c12.2-7.4,26.3-11,42.2-11
		c23.5,0,42.6,7.6,57.3,22.7c14.7,15.1,22.6,35.2,23.8,60.3l0.2,9.2c0,17.2-3.3,32.5-9.9,46.1c-6.6,13.5-16.1,24-28.4,31.4
		c-12.3,7.4-26.5,11.1-42.6,11.1c-24.6,0-44.3-8.2-59.1-24.6c-14.8-16.4-22.2-38.2-22.2-65.5V431z M362.8,434.4
		c0,17.9,3.7,32,11.1,42.1s17.7,15.2,30.9,15.2s23.5-5.2,30.9-15.5c7.4-10.3,11-25.4,11-45.3c0-17.6-3.8-31.6-11.4-41.9
		c-7.6-10.3-17.9-15.5-30.9-15.5c-12.8,0-22.9,5.1-30.5,15.2C366.5,399.1,362.8,414.2,362.8,434.4z"/>
</g>
</svg>
