<?xml version="1.0" encoding="utf-8"?>
<!-- Generator: Adobe Illustrator 17.1.0, SVG Export Plug-In . SVG Version: 6.00 Build 0)  -->
<!DOCTYPE svg PUBLIC "-//W3C//DTD SVG 1.1//EN" "http://www.w3.org/Graphics/SVG/1.1/DTD/svg11.dtd">
<svg version="1.1" id="Layer_1" xmlns="http://www.w3.org/2000/svg" xmlns:xlink="http://www.w3.org/1999/xlink" x="0px" y="0px"
	 viewBox="61.2 163.4 489.6 489.6" enable-background="new 61.2 163.4 489.6 489.6" xml:space="preserve">
<path fill="#FFFFFF" d="M404.5,373.7c-12.8,0-22.9,5.1-30.5,15.2c-7.5,10.2-11.3,25.3-11.3,45.5c0,17.9,3.7,32,11.1,42.1
	s17.7,15.2,30.9,15.2s23.5-5.2,30.9-15.5c7.4-10.3,11-25.4,11-45.3c0-17.6-3.8-31.6-11.4-41.9C427.8,378.8,417.5,373.7,404.5,373.7z
	"/>
<g>
	<path fill="#FFFFFF" d="M404.5,373.7c-12.8,0-22.9,5.1-30.5,15.2c-7.5,10.2-11.3,25.3-11.3,45.5c0,17.9,3.7,32,11.1,42.1
		s17.7,15.2,30.9,15.2s23.5-5.2,30.9-15.5c7.4-10.3,11-25.4,11-45.3c0-17.6-3.8-31.6-11.4-41.9C427.8,378.8,417.5,373.7,404.5,373.7
		z"/>
	<path fill="#FFFFFF" d="M306,163.4L78.1,244.7l34.8,301.3L306,653l193.1-107l34.8-301.3L306,163.4z M306,525.8h-25.7l-50.4-99.5l-50.6,99.5h-47.4
		l72.7-136.8l-71.1-134.5h47.1l49.3,98l49.3-98H306h20.2L306,292.9l-50.7,96.2l50.7,95.6l21.8,41.2H306z M475.8,480.5
		c-6.6,13.5-16.1,24-28.4,31.4c-12.3,7.4-26.5,11.1-42.6,11.1c-24.6,0-44.3-8.2-59.1-24.6c-14.8-16.4-22.2-38.2-22.2-65.5V431
		c0-17.1,3.4-32.5,10.2-46.2s16.3-24.2,28.5-31.6c12.2-7.4,26.3-11,42.2-11c23.5,0,42.6,7.6,57.3,22.7
		c14.7,15.1,22.6,35.2,23.8,60.3l0.2,9.2C485.7,451.6,482.4,467,475.8,480.5z"/>
</g>
</svg>
