<?xml version="1.0" encoding="utf-8"?>
<!-- Generator: Adobe Illustrator 17.1.0, SVG Export Plug-In . SVG Version: 6.00 Build 0)  -->
<!DOCTYPE svg PUBLIC "-//W3C//DTD SVG 1.1//EN" "http://www.w3.org/Graphics/SVG/1.1/DTD/svg11.dtd">
<svg version="1.1" id="Layer_1" xmlns="http://www.w3.org/2000/svg" xmlns:xlink="http://www.w3.org/1999/xlink" x="0px" y="0px"
	 viewBox="61.2 163.4 489.6 489.6" enable-background="new 61.2 163.4 489.6 489.6" xml:space="preserve">
<g>
	<polygon fill="#DD0031" points="306,163.4 306,163.4 306,163.4 78.1,244.7 112.9,546.1 306,653 306,653 306,653 499.1,546.1 
		533.9,244.7 	"/>
	<polygon fill="#C3002F" points="306,163.4 306,217.8 306,217.5 306,465.5 306,465.5 306,653 306,653 499.1,546.1 533.9,244.7 	"/>
	<path fill="#FFFFFF" d="M306,217.5L163.5,537l0,0h53.1l0,0l28.6-71.5h120.9l28.6,71.5l0,0H448l0,0L306,217.5L306,217.5L306,217.5
		L306,217.5L306,217.5z M347.6,421.5h-83.2L306,321.3L347.6,421.5z"/>
</g>
</svg>
